<mxfile host="app.diagrams.net" modified="2022-03-23T06:06:28.426Z" agent="5.0 (Windows NT 10.0; Win64; x64) AppleWebKit/537.36 (KHTML, like Gecko) Chrome/99.0.4844.74 Safari/537.36" etag="ovd6OVS8iqm3Ik_o9Z5l" version="17.1.5" type="github">
  <diagram id="HF_uhI5cBud-vyEoz3XW" name="Page-1">
    <mxGraphModel dx="1422" dy="794" grid="1" gridSize="10" guides="1" tooltips="1" connect="1" arrows="1" fold="1" page="1" pageScale="1" pageWidth="850" pageHeight="1100" math="0" shadow="0">
      <root>
        <mxCell id="0" />
        <mxCell id="1" parent="0" />
        <mxCell id="2Fjv_p7pJFtuCJ0WG280-3" value="Bill" style="html=1;" vertex="1" parent="1">
          <mxGeometry x="340" y="460" width="110" height="50" as="geometry" />
        </mxCell>
        <mxCell id="2Fjv_p7pJFtuCJ0WG280-4" value="Student" style="html=1;" vertex="1" parent="1">
          <mxGeometry x="400" y="310" width="110" height="50" as="geometry" />
        </mxCell>
        <mxCell id="2Fjv_p7pJFtuCJ0WG280-5" value="Doctor" style="html=1;" vertex="1" parent="1">
          <mxGeometry x="20" y="310" width="110" height="50" as="geometry" />
        </mxCell>
        <mxCell id="2Fjv_p7pJFtuCJ0WG280-6" value="Appointment" style="html=1;" vertex="1" parent="1">
          <mxGeometry x="210" y="310" width="110" height="50" as="geometry" />
        </mxCell>
        <mxCell id="2Fjv_p7pJFtuCJ0WG280-7" value="Nurse" style="html=1;" vertex="1" parent="1">
          <mxGeometry x="220" y="520" width="110" height="50" as="geometry" />
        </mxCell>
        <mxCell id="2Fjv_p7pJFtuCJ0WG280-8" value="Surgery" style="html=1;" vertex="1" parent="1">
          <mxGeometry x="680" y="310" width="110" height="50" as="geometry" />
        </mxCell>
        <mxCell id="2Fjv_p7pJFtuCJ0WG280-9" value="Ward" style="html=1;" vertex="1" parent="1">
          <mxGeometry x="680" y="430" width="110" height="50" as="geometry" />
        </mxCell>
        <mxCell id="2Fjv_p7pJFtuCJ0WG280-10" value="" style="rounded=0;orthogonalLoop=1;jettySize=auto;html=1;endArrow=none;endFill=0;sketch=0;sourcePerimeterSpacing=0;targetPerimeterSpacing=0;" edge="1" target="2Fjv_p7pJFtuCJ0WG280-12" parent="1" source="2Fjv_p7pJFtuCJ0WG280-5">
          <mxGeometry relative="1" as="geometry">
            <mxPoint x="160" y="335" as="sourcePoint" />
          </mxGeometry>
        </mxCell>
        <mxCell id="2Fjv_p7pJFtuCJ0WG280-11" value="" style="rounded=0;orthogonalLoop=1;jettySize=auto;html=1;endArrow=halfCircle;endFill=0;entryX=0.5;entryY=0.5;endSize=6;strokeWidth=1;sketch=0;exitX=0;exitY=0.5;exitDx=0;exitDy=0;" edge="1" target="2Fjv_p7pJFtuCJ0WG280-12" parent="1" source="2Fjv_p7pJFtuCJ0WG280-6">
          <mxGeometry relative="1" as="geometry">
            <mxPoint x="200" y="335" as="sourcePoint" />
          </mxGeometry>
        </mxCell>
        <mxCell id="2Fjv_p7pJFtuCJ0WG280-12" value="" style="ellipse;whiteSpace=wrap;html=1;align=center;aspect=fixed;resizable=0;points=[];outlineConnect=0;sketch=0;" vertex="1" parent="1">
          <mxGeometry x="175" y="330" width="10" height="10" as="geometry" />
        </mxCell>
        <mxCell id="2Fjv_p7pJFtuCJ0WG280-14" value="Doctor details" style="text;html=1;strokeColor=none;fillColor=none;align=center;verticalAlign=middle;whiteSpace=wrap;rounded=0;" vertex="1" parent="1">
          <mxGeometry x="140" y="350" width="60" height="30" as="geometry" />
        </mxCell>
        <mxCell id="2Fjv_p7pJFtuCJ0WG280-16" value="" style="rounded=0;orthogonalLoop=1;jettySize=auto;html=1;endArrow=none;endFill=0;sketch=0;targetPerimeterSpacing=0;exitX=0;exitY=0.5;exitDx=0;exitDy=0;startArrow=none;" edge="1" parent="1" source="2Fjv_p7pJFtuCJ0WG280-18">
          <mxGeometry relative="1" as="geometry">
            <mxPoint x="340" y="345" as="sourcePoint" />
            <mxPoint x="360" y="340" as="targetPoint" />
          </mxGeometry>
        </mxCell>
        <mxCell id="2Fjv_p7pJFtuCJ0WG280-17" value="" style="rounded=0;orthogonalLoop=1;jettySize=auto;html=1;endArrow=halfCircle;endFill=0;entryX=0.5;entryY=0.5;endSize=6;strokeWidth=1;sketch=0;exitX=1;exitY=0.5;exitDx=0;exitDy=0;" edge="1" target="2Fjv_p7pJFtuCJ0WG280-18" parent="1" source="2Fjv_p7pJFtuCJ0WG280-6">
          <mxGeometry relative="1" as="geometry">
            <mxPoint x="380" y="345" as="sourcePoint" />
          </mxGeometry>
        </mxCell>
        <mxCell id="2Fjv_p7pJFtuCJ0WG280-18" value="" style="ellipse;whiteSpace=wrap;html=1;align=center;aspect=fixed;resizable=0;points=[];outlineConnect=0;sketch=0;" vertex="1" parent="1">
          <mxGeometry x="360" y="330" width="10" height="10" as="geometry" />
        </mxCell>
        <mxCell id="2Fjv_p7pJFtuCJ0WG280-19" value="" style="rounded=0;orthogonalLoop=1;jettySize=auto;html=1;endArrow=none;endFill=0;sketch=0;sourcePerimeterSpacing=0;exitX=0;exitY=0.5;exitDx=0;exitDy=0;" edge="1" parent="1" source="2Fjv_p7pJFtuCJ0WG280-4" target="2Fjv_p7pJFtuCJ0WG280-18">
          <mxGeometry relative="1" as="geometry">
            <mxPoint x="400" y="335" as="sourcePoint" />
            <mxPoint x="360" y="340" as="targetPoint" />
          </mxGeometry>
        </mxCell>
        <mxCell id="2Fjv_p7pJFtuCJ0WG280-20" value="Student details" style="text;html=1;strokeColor=none;fillColor=none;align=center;verticalAlign=middle;whiteSpace=wrap;rounded=0;" vertex="1" parent="1">
          <mxGeometry x="330" y="350" width="60" height="30" as="geometry" />
        </mxCell>
        <mxCell id="2Fjv_p7pJFtuCJ0WG280-27" value="" style="rounded=0;orthogonalLoop=1;jettySize=auto;html=1;endArrow=none;endFill=0;sketch=0;sourcePerimeterSpacing=0;targetPerimeterSpacing=0;exitX=0.5;exitY=1;exitDx=0;exitDy=0;" edge="1" target="2Fjv_p7pJFtuCJ0WG280-29" parent="1" source="2Fjv_p7pJFtuCJ0WG280-4">
          <mxGeometry relative="1" as="geometry">
            <mxPoint x="440" y="395" as="sourcePoint" />
          </mxGeometry>
        </mxCell>
        <mxCell id="2Fjv_p7pJFtuCJ0WG280-28" value="" style="rounded=0;orthogonalLoop=1;jettySize=auto;html=1;endArrow=halfCircle;endFill=0;entryX=0.5;entryY=0.5;endSize=6;strokeWidth=1;sketch=0;exitX=0.5;exitY=0;exitDx=0;exitDy=0;" edge="1" target="2Fjv_p7pJFtuCJ0WG280-29" parent="1" source="2Fjv_p7pJFtuCJ0WG280-3">
          <mxGeometry relative="1" as="geometry">
            <mxPoint x="460" y="420" as="sourcePoint" />
          </mxGeometry>
        </mxCell>
        <mxCell id="2Fjv_p7pJFtuCJ0WG280-29" value="" style="ellipse;whiteSpace=wrap;html=1;align=center;aspect=fixed;resizable=0;points=[];outlineConnect=0;sketch=0;" vertex="1" parent="1">
          <mxGeometry x="390" y="420" width="10" height="10" as="geometry" />
        </mxCell>
        <mxCell id="2Fjv_p7pJFtuCJ0WG280-31" value="Student details" style="text;html=1;strokeColor=none;fillColor=none;align=center;verticalAlign=middle;whiteSpace=wrap;rounded=0;" vertex="1" parent="1">
          <mxGeometry x="335" y="430" width="60" height="30" as="geometry" />
        </mxCell>
        <mxCell id="2Fjv_p7pJFtuCJ0WG280-32" value="" style="rounded=0;orthogonalLoop=1;jettySize=auto;html=1;endArrow=none;endFill=0;sketch=0;sourcePerimeterSpacing=0;targetPerimeterSpacing=0;exitX=1;exitY=0.5;exitDx=0;exitDy=0;" edge="1" target="2Fjv_p7pJFtuCJ0WG280-34" parent="1" source="2Fjv_p7pJFtuCJ0WG280-4">
          <mxGeometry relative="1" as="geometry">
            <mxPoint x="540" y="335" as="sourcePoint" />
          </mxGeometry>
        </mxCell>
        <mxCell id="2Fjv_p7pJFtuCJ0WG280-33" value="" style="rounded=0;orthogonalLoop=1;jettySize=auto;html=1;endArrow=halfCircle;endFill=0;entryX=0.5;entryY=0.5;endSize=6;strokeWidth=1;sketch=0;exitX=0;exitY=0.5;exitDx=0;exitDy=0;" edge="1" target="2Fjv_p7pJFtuCJ0WG280-34" parent="1" source="2Fjv_p7pJFtuCJ0WG280-8">
          <mxGeometry relative="1" as="geometry">
            <mxPoint x="580" y="335" as="sourcePoint" />
          </mxGeometry>
        </mxCell>
        <mxCell id="2Fjv_p7pJFtuCJ0WG280-34" value="" style="ellipse;whiteSpace=wrap;html=1;align=center;aspect=fixed;resizable=0;points=[];outlineConnect=0;sketch=0;" vertex="1" parent="1">
          <mxGeometry x="555" y="330" width="10" height="10" as="geometry" />
        </mxCell>
        <mxCell id="2Fjv_p7pJFtuCJ0WG280-35" value="Student details" style="text;html=1;strokeColor=none;fillColor=none;align=center;verticalAlign=middle;whiteSpace=wrap;rounded=0;" vertex="1" parent="1">
          <mxGeometry x="530" y="290" width="60" height="30" as="geometry" />
        </mxCell>
        <mxCell id="2Fjv_p7pJFtuCJ0WG280-36" value="" style="rounded=0;orthogonalLoop=1;jettySize=auto;html=1;endArrow=none;endFill=0;sketch=0;sourcePerimeterSpacing=0;targetPerimeterSpacing=0;exitX=0;exitY=1;exitDx=0;exitDy=0;" edge="1" target="2Fjv_p7pJFtuCJ0WG280-38" parent="1" source="2Fjv_p7pJFtuCJ0WG280-8">
          <mxGeometry relative="1" as="geometry">
            <mxPoint x="540" y="385" as="sourcePoint" />
          </mxGeometry>
        </mxCell>
        <mxCell id="2Fjv_p7pJFtuCJ0WG280-37" value="" style="rounded=0;orthogonalLoop=1;jettySize=auto;html=1;endArrow=halfCircle;endFill=0;entryX=0.5;entryY=0.5;endSize=6;strokeWidth=1;sketch=0;exitX=1;exitY=0;exitDx=0;exitDy=0;" edge="1" target="2Fjv_p7pJFtuCJ0WG280-38" parent="1" source="2Fjv_p7pJFtuCJ0WG280-3">
          <mxGeometry relative="1" as="geometry">
            <mxPoint x="580" y="385" as="sourcePoint" />
          </mxGeometry>
        </mxCell>
        <mxCell id="2Fjv_p7pJFtuCJ0WG280-38" value="" style="ellipse;whiteSpace=wrap;html=1;align=center;aspect=fixed;resizable=0;points=[];outlineConnect=0;sketch=0;" vertex="1" parent="1">
          <mxGeometry x="580" y="410" width="10" height="10" as="geometry" />
        </mxCell>
        <mxCell id="2Fjv_p7pJFtuCJ0WG280-39" value="Surgery expense" style="text;html=1;strokeColor=none;fillColor=none;align=center;verticalAlign=middle;whiteSpace=wrap;rounded=0;" vertex="1" parent="1">
          <mxGeometry x="565" y="370" width="60" height="30" as="geometry" />
        </mxCell>
        <mxCell id="2Fjv_p7pJFtuCJ0WG280-43" value="" style="rounded=0;orthogonalLoop=1;jettySize=auto;html=1;endArrow=none;endFill=0;sketch=0;sourcePerimeterSpacing=0;targetPerimeterSpacing=0;exitX=0;exitY=0.5;exitDx=0;exitDy=0;" edge="1" target="2Fjv_p7pJFtuCJ0WG280-45" parent="1" source="2Fjv_p7pJFtuCJ0WG280-9">
          <mxGeometry relative="1" as="geometry">
            <mxPoint x="540" y="455" as="sourcePoint" />
          </mxGeometry>
        </mxCell>
        <mxCell id="2Fjv_p7pJFtuCJ0WG280-44" value="" style="rounded=0;orthogonalLoop=1;jettySize=auto;html=1;endArrow=halfCircle;endFill=0;entryX=0.5;entryY=0.5;endSize=6;strokeWidth=1;sketch=0;exitX=1;exitY=0.5;exitDx=0;exitDy=0;" edge="1" target="2Fjv_p7pJFtuCJ0WG280-45" parent="1" source="2Fjv_p7pJFtuCJ0WG280-3">
          <mxGeometry relative="1" as="geometry">
            <mxPoint x="580" y="455" as="sourcePoint" />
          </mxGeometry>
        </mxCell>
        <mxCell id="2Fjv_p7pJFtuCJ0WG280-45" value="" style="ellipse;whiteSpace=wrap;html=1;align=center;aspect=fixed;resizable=0;points=[];outlineConnect=0;sketch=0;" vertex="1" parent="1">
          <mxGeometry x="555" y="450" width="10" height="10" as="geometry" />
        </mxCell>
        <mxCell id="2Fjv_p7pJFtuCJ0WG280-47" value="Days to recover" style="text;html=1;align=center;verticalAlign=middle;resizable=0;points=[];autosize=1;strokeColor=none;fillColor=none;" vertex="1" parent="1">
          <mxGeometry x="505" y="470" width="100" height="20" as="geometry" />
        </mxCell>
        <mxCell id="2Fjv_p7pJFtuCJ0WG280-48" value="" style="rounded=0;orthogonalLoop=1;jettySize=auto;html=1;endArrow=none;endFill=0;sketch=0;sourcePerimeterSpacing=0;targetPerimeterSpacing=0;exitX=0.5;exitY=1;exitDx=0;exitDy=0;" edge="1" target="2Fjv_p7pJFtuCJ0WG280-50" parent="1" source="2Fjv_p7pJFtuCJ0WG280-8">
          <mxGeometry relative="1" as="geometry">
            <mxPoint x="635" y="395" as="sourcePoint" />
          </mxGeometry>
        </mxCell>
        <mxCell id="2Fjv_p7pJFtuCJ0WG280-49" value="" style="rounded=0;orthogonalLoop=1;jettySize=auto;html=1;endArrow=halfCircle;endFill=0;entryX=0.5;entryY=0.5;endSize=6;strokeWidth=1;sketch=0;exitX=0.5;exitY=0;exitDx=0;exitDy=0;" edge="1" target="2Fjv_p7pJFtuCJ0WG280-50" parent="1" source="2Fjv_p7pJFtuCJ0WG280-9">
          <mxGeometry relative="1" as="geometry">
            <mxPoint x="675" y="395" as="sourcePoint" />
          </mxGeometry>
        </mxCell>
        <mxCell id="2Fjv_p7pJFtuCJ0WG280-50" value="" style="ellipse;whiteSpace=wrap;html=1;align=center;aspect=fixed;resizable=0;points=[];outlineConnect=0;sketch=0;" vertex="1" parent="1">
          <mxGeometry x="730" y="390" width="10" height="10" as="geometry" />
        </mxCell>
        <mxCell id="2Fjv_p7pJFtuCJ0WG280-51" value="Assign ward" style="text;html=1;strokeColor=none;fillColor=none;align=center;verticalAlign=middle;whiteSpace=wrap;rounded=0;" vertex="1" parent="1">
          <mxGeometry x="680" y="380" width="60" height="30" as="geometry" />
        </mxCell>
        <mxCell id="2Fjv_p7pJFtuCJ0WG280-52" value="" style="rounded=0;orthogonalLoop=1;jettySize=auto;html=1;endArrow=none;endFill=0;sketch=0;sourcePerimeterSpacing=0;targetPerimeterSpacing=0;exitX=0.5;exitY=1;exitDx=0;exitDy=0;" edge="1" target="2Fjv_p7pJFtuCJ0WG280-54" parent="1" source="2Fjv_p7pJFtuCJ0WG280-9">
          <mxGeometry relative="1" as="geometry">
            <mxPoint x="640" y="515" as="sourcePoint" />
          </mxGeometry>
        </mxCell>
        <mxCell id="2Fjv_p7pJFtuCJ0WG280-53" value="" style="rounded=0;orthogonalLoop=1;jettySize=auto;html=1;endArrow=halfCircle;endFill=0;entryX=0.5;entryY=0.5;endSize=6;strokeWidth=1;sketch=0;exitX=1;exitY=0.5;exitDx=0;exitDy=0;" edge="1" target="2Fjv_p7pJFtuCJ0WG280-54" parent="1" source="2Fjv_p7pJFtuCJ0WG280-7">
          <mxGeometry relative="1" as="geometry">
            <mxPoint x="680" y="515" as="sourcePoint" />
          </mxGeometry>
        </mxCell>
        <mxCell id="2Fjv_p7pJFtuCJ0WG280-54" value="" style="ellipse;whiteSpace=wrap;html=1;align=center;aspect=fixed;resizable=0;points=[];outlineConnect=0;sketch=0;" vertex="1" parent="1">
          <mxGeometry x="655" y="510" width="10" height="10" as="geometry" />
        </mxCell>
        <mxCell id="2Fjv_p7pJFtuCJ0WG280-55" value="Assign ward" style="text;html=1;strokeColor=none;fillColor=none;align=center;verticalAlign=middle;whiteSpace=wrap;rounded=0;" vertex="1" parent="1">
          <mxGeometry x="690" y="510" width="60" height="30" as="geometry" />
        </mxCell>
        <mxCell id="2Fjv_p7pJFtuCJ0WG280-56" value="" style="rounded=0;orthogonalLoop=1;jettySize=auto;html=1;endArrow=none;endFill=0;sketch=0;sourcePerimeterSpacing=0;targetPerimeterSpacing=0;exitX=0.5;exitY=0;exitDx=0;exitDy=0;" edge="1" target="2Fjv_p7pJFtuCJ0WG280-58" parent="1" source="2Fjv_p7pJFtuCJ0WG280-7">
          <mxGeometry relative="1" as="geometry">
            <mxPoint x="280" y="455" as="sourcePoint" />
          </mxGeometry>
        </mxCell>
        <mxCell id="2Fjv_p7pJFtuCJ0WG280-57" value="" style="rounded=0;orthogonalLoop=1;jettySize=auto;html=1;endArrow=halfCircle;endFill=0;entryX=0.5;entryY=0.5;endSize=6;strokeWidth=1;sketch=0;exitX=0;exitY=1;exitDx=0;exitDy=0;" edge="1" target="2Fjv_p7pJFtuCJ0WG280-58" parent="1" source="2Fjv_p7pJFtuCJ0WG280-4">
          <mxGeometry relative="1" as="geometry">
            <mxPoint x="320" y="455" as="sourcePoint" />
          </mxGeometry>
        </mxCell>
        <mxCell id="2Fjv_p7pJFtuCJ0WG280-58" value="" style="ellipse;whiteSpace=wrap;html=1;align=center;aspect=fixed;resizable=0;points=[];outlineConnect=0;sketch=0;" vertex="1" parent="1">
          <mxGeometry x="295" y="450" width="10" height="10" as="geometry" />
        </mxCell>
        <mxCell id="2Fjv_p7pJFtuCJ0WG280-59" value="Provide care" style="text;html=1;strokeColor=none;fillColor=none;align=center;verticalAlign=middle;whiteSpace=wrap;rounded=0;" vertex="1" parent="1">
          <mxGeometry x="210" y="440" width="60" height="30" as="geometry" />
        </mxCell>
        <mxCell id="2Fjv_p7pJFtuCJ0WG280-63" value="" style="rounded=0;orthogonalLoop=1;jettySize=auto;html=1;endArrow=none;endFill=0;sketch=0;sourcePerimeterSpacing=0;targetPerimeterSpacing=0;exitX=0.75;exitY=0;exitDx=0;exitDy=0;" edge="1" target="2Fjv_p7pJFtuCJ0WG280-65" parent="1" source="2Fjv_p7pJFtuCJ0WG280-3">
          <mxGeometry relative="1" as="geometry">
            <mxPoint x="440" y="405" as="sourcePoint" />
          </mxGeometry>
        </mxCell>
        <mxCell id="2Fjv_p7pJFtuCJ0WG280-64" value="" style="rounded=0;orthogonalLoop=1;jettySize=auto;html=1;endArrow=halfCircle;endFill=0;entryX=0.5;entryY=0.5;endSize=6;strokeWidth=1;sketch=0;exitX=0.75;exitY=1;exitDx=0;exitDy=0;" edge="1" target="2Fjv_p7pJFtuCJ0WG280-65" parent="1" source="2Fjv_p7pJFtuCJ0WG280-4">
          <mxGeometry relative="1" as="geometry">
            <mxPoint x="480" y="405" as="sourcePoint" />
          </mxGeometry>
        </mxCell>
        <mxCell id="2Fjv_p7pJFtuCJ0WG280-65" value="" style="ellipse;whiteSpace=wrap;html=1;align=center;aspect=fixed;resizable=0;points=[];outlineConnect=0;sketch=0;" vertex="1" parent="1">
          <mxGeometry x="490" y="400" width="10" height="10" as="geometry" />
        </mxCell>
        <mxCell id="2Fjv_p7pJFtuCJ0WG280-66" value="Final Bill" style="text;html=1;strokeColor=none;fillColor=none;align=center;verticalAlign=middle;whiteSpace=wrap;rounded=0;" vertex="1" parent="1">
          <mxGeometry x="430" y="390" width="60" height="30" as="geometry" />
        </mxCell>
      </root>
    </mxGraphModel>
  </diagram>
</mxfile>
